<?xml version="1.0" encoding="utf-8"?>
<svg width="157px" height="33px" viewBox="0 0 157 33" version="1.1" xmlns:xlink="http://www.w3.org/1999/xlink" xmlns="http://www.w3.org/2000/svg">
  <desc>Created with Lunacy</desc>
  <g id="HotelZila.com" fill="#FFFFFF">
    <path d="M79.3359 8.48438Q79.3359 9.79688 80.6836 9.79688Q81.3164 9.79688 81.7207 9.36914Q82.125 8.94141 82.125 8.12109Q82.125 6.79688 80.7773 6.79688Q80.1211 6.79688 79.7285 7.25977Q79.3359 7.72266 79.3359 8.48438ZM56.1211 6.83203L55.9102 7.83984L56.1914 7.83984Q57.8789 7.83984 57.8789 8.96484Q57.8789 9.32813 57.7266 10.043L55.7695 19.2539Q55.2422 21.8906 55.2422 23.0273Q55.2422 24.0352 55.7988 24.668Q56.3555 25.3008 57.2227 25.3008Q58.8047 25.3008 60.4688 23.8711L60.0352 23.168Q59.0039 23.7891 58.3125 23.7891Q57.5156 23.7891 57.5156 22.5703Q57.5156 21.6211 57.8789 19.9102L60.6563 6.83203L56.1211 6.83203ZM85.0313 7.83984L85.2422 6.83203L89.7773 6.83203L87 19.9102Q86.6367 21.6211 86.6367 22.5703Q86.6367 23.7891 87.4336 23.7891Q88.125 23.7891 89.1563 23.168L89.5898 23.8711Q87.9258 25.3008 86.3438 25.3008Q85.4766 25.3008 84.9199 24.668Q84.3633 24.0352 84.3633 23.0273Q84.3633 21.8906 84.8906 19.2539L86.8477 10.043Q87 9.32813 87 8.96484Q87 7.83984 85.3125 7.83984L85.0313 7.83984ZM9.71484 25.0664L9.91406 24.0586L10.2188 24.0586Q11.3672 24.0586 11.8828 23.6309Q12.3984 23.2031 12.5742 22.3359L13.7578 16.7109L5.95313 16.7109L4.75781 22.4297Q4.65234 22.9336 4.65234 23.0977Q4.65234 24.0586 6.38672 24.0586L6.69141 24.0586L6.48047 25.0664L-0.503906 25.0664L-0.316406 24.0586L0 24.0586Q1.16016 24.0586 1.66406 23.6191Q2.16797 23.1797 2.35547 22.3359L4.85156 10.5703Q4.94531 10.125 4.94531 9.90234Q4.94531 8.94141 3.21094 8.94141L2.90625 8.94141L3.11719 7.93359L10.1016 7.93359L9.89063 8.94141L9.57422 8.94141Q8.42578 8.94141 7.92188 9.375Q7.41797 9.8086 7.24219 10.6641L6.21094 15.5156L14.0156 15.5156L15.0703 10.5703Q15.1641 10.125 15.1641 9.90234Q15.1641 8.94141 13.4414 8.94141L13.125 8.94141L13.3477 7.93359L20.332 7.93359L20.1094 8.94141L19.8047 8.94141Q18.6563 8.94141 18.1523 9.38086Q17.6484 9.82031 17.4727 10.6641L14.9766 22.4297Q14.8828 22.875 14.8828 23.0977Q14.8828 24.0586 16.6055 24.0586L16.9219 24.0586L16.6992 25.0664L9.71484 25.0664ZM75.7383 8.91797L63.6445 23.8711L70.0547 23.8711Q71.8359 23.8711 72.4688 21.9023L72.8086 20.8711L74.0625 20.8711L73.0547 25.0664L60.375 25.0664L60.5742 24.1055L72.6445 9.12891L67.0547 9.12891Q65.2852 9.12891 64.6523 11.0977L64.3125 12.1289L63.0703 12.1289L64.0781 7.93359L75.9258 7.93359L75.7383 8.91797ZM40.4414 24.1523L40.0313 23.2617Q39.0469 23.7891 38.0742 23.7891Q36.7969 23.7891 36.7969 22.4766Q36.7969 21.7969 37.0898 20.4141L38.543 13.5703L41.4492 13.5703L41.7422 12.1992L38.8359 12.1992L39.457 9.24609L38.3555 9.24609Q37.0313 12.6094 34.6875 12.6094L34.4648 13.5703L36.293 13.5703L34.8281 20.4844Q34.5938 21.5977 34.5938 22.5Q34.5938 25.3008 37.207 25.3008Q38.8242 25.3008 40.4414 24.1523ZM27.2109 11.9648Q29.332 11.9648 30.5508 13.2422Q31.7695 14.5195 31.7695 16.9336Q31.7695 20.1328 29.8125 22.7168Q27.8555 25.3008 24.668 25.3008Q22.5 25.3008 21.2813 23.9883Q20.0625 22.6758 20.0625 20.3438Q20.0625 17.1094 22.0371 14.5371Q24.0117 11.9648 27.2109 11.9648ZM51.2695 22.0664Q51.5156 22.2188 51.5156 22.6641Q51.5156 23.625 50.3848 24.4629Q49.2539 25.3008 47.3555 25.3008Q45.2578 25.3008 43.9688 23.9766Q42.6797 22.6523 42.6797 20.3438Q42.6797 17.2031 44.707 14.584Q46.7344 11.9648 49.8281 11.9648Q51.3516 11.9648 52.1895 12.6914Q53.0273 13.418 53.0273 14.7188Q53.0273 16.6641 51.0059 18.1055Q48.9844 19.5469 46.0664 19.5469L45.6563 19.5469Q45.4453 19.5469 45.2227 19.5234Q45.1758 19.8516 45.1758 20.5313Q45.1758 23.7891 47.8125 23.7891Q49.8633 23.7891 51.2695 22.0664ZM98.5195 21.4453L98.6719 21.4453Q98.4258 22.5469 98.4258 23.3086Q98.4258 25.3008 100.301 25.3008Q101.965 25.3008 103.688 23.8711L103.254 23.168Q102.199 23.7891 101.52 23.7891Q100.734 23.7891 100.734 22.5703Q100.734 21.5625 101.086 19.9102L102.727 12.2227L101.953 12.2227L100.898 12.832Q99.7148 11.9648 98.0859 11.9648Q95.0508 11.9648 92.9941 14.7891Q90.9375 17.6133 90.9375 20.918Q90.9375 22.9922 91.752 24.1465Q92.5664 25.3008 94.0313 25.3008Q96.7969 25.3008 98.5195 21.4453ZM119.672 22.6641Q119.672 22.2188 119.426 22.0664Q118.066 23.7891 115.969 23.7891Q113.332 23.7891 113.332 20.5313Q113.332 18.1289 114.58 15.6211Q115.828 13.1133 117.504 13.1133Q118.371 13.1133 118.863 13.8926Q119.355 14.6719 119.355 15.9492Q120.328 15.9492 120.908 15.4688Q121.488 14.9883 121.488 14.2617Q121.488 13.2773 120.563 12.6211Q119.637 11.9648 117.984 11.9648Q114.891 11.9648 112.863 14.584Q110.836 17.2031 110.836 20.3438Q110.836 22.6523 112.125 23.9766Q113.414 25.3008 115.512 25.3008Q117.41 25.3008 118.541 24.4629Q119.672 23.625 119.672 22.6641ZM129.668 11.9648Q131.789 11.9648 133.008 13.2422Q134.227 14.5195 134.227 16.9336Q134.227 20.1328 132.27 22.7168Q130.313 25.3008 127.125 25.3008Q124.957 25.3008 123.738 23.9883Q122.52 22.6758 122.52 20.3438Q122.52 17.1094 124.494 14.5371Q126.469 11.9648 129.668 11.9648ZM143.766 25.0664L146.051 25.0664Q146.051 24.5977 146.32 22.6875Q146.59 20.7773 146.742 20.1211L147.129 18.3984Q147.656 16.6758 148.969 15.0996Q150.281 13.5234 151.512 13.5234Q152.625 13.5234 152.625 14.9414Q152.625 15.4805 152.121 17.7891L151.711 19.6641Q151.254 21.8086 151.254 22.9102Q151.254 24.0117 151.852 24.6563Q152.449 25.3008 153.434 25.3008Q154.84 25.3008 156.363 23.9414L155.93 23.2383Q155.086 23.7891 154.395 23.7891Q153.563 23.7891 153.563 22.6406Q153.563 21.5156 153.867 20.1211L154.488 17.2852Q154.922 15.4102 154.922 14.6484Q154.922 11.9883 152.355 11.9883Q149.941 11.9883 147.984 15.2227L147.75 15.2227Q147.797 14.9414 147.797 14.6484Q147.797 11.9883 145.23 11.9883Q142.805 11.9883 140.859 15.2227L140.625 15.2227L141.27 12.1992L136.828 12.1992L136.617 13.207L136.805 13.207Q138.48 13.207 138.48 14.3438Q138.48 14.7539 138.34 15.4219L136.324 25.0664L138.563 25.0664L139.852 18.9258Q140.227 17.168 141.639 15.3457Q143.051 13.5234 144.387 13.5234Q145.488 13.5234 145.488 14.9414Q145.488 15.7266 145.137 17.1797L144.586 19.6641Q144.375 20.625 144.07 22.5762Q143.766 24.5273 143.766 25.0664ZM77.0039 12.1992L76.793 13.207L77.1094 13.207Q78.5742 13.207 78.5742 14.2148Q78.5742 14.4609 78.4922 14.8477L77.5664 19.2539Q77.0273 21.9492 77.0273 23.0273Q77.0273 24.0117 77.5781 24.6563Q78.1289 25.3008 79.0195 25.3008Q80.6016 25.3008 82.2656 23.8711L81.832 23.168Q80.8008 23.7891 80.1094 23.7891Q79.3125 23.7891 79.3125 22.5703Q79.3125 21.6328 79.6758 19.9102L81.3047 12.1992L77.0039 12.1992ZM98.2148 13.043Q99.4805 13.043 100.031 13.9102L99.1406 18.1523Q98.7188 20.25 97.4063 22.0195Q96.0938 23.7891 94.8984 23.7891Q93.3867 23.7891 93.3867 21.0117Q93.3867 18.2578 94.7754 15.6504Q96.1641 13.043 98.2148 13.043ZM45.4453 18.4219L45.6797 18.4219Q47.8008 18.4219 49.1777 17.3906Q50.5547 16.3594 50.5547 14.7188Q50.5547 13.1133 49.1602 13.1133Q48 13.1133 46.9922 14.5723Q45.9844 16.0313 45.4453 18.4219ZM24.9375 24.1289Q26.918 24.1289 28.0957 21.7793Q29.2734 19.4297 29.2734 16.5703Q29.2734 13.2305 26.9297 13.2305Q24.9727 13.2305 23.7656 15.5859Q22.5586 17.9414 22.5586 20.8242Q22.5586 24.1289 24.9375 24.1289ZM127.395 24.1289Q129.375 24.1289 130.553 21.7793Q131.73 19.4297 131.73 16.5703Q131.73 13.2305 129.387 13.2305Q127.43 13.2305 126.223 15.5859Q125.016 17.9414 125.016 20.8242Q125.016 24.1289 127.395 24.1289ZM105.914 25.2539Q104.426 25.2539 104.426 23.7891Q104.426 22.957 104.854 22.4531Q105.281 21.9492 106.008 21.9492Q107.496 21.9492 107.496 23.4141Q107.496 24.2578 107.068 24.7559Q106.641 25.2539 105.914 25.2539Z" />
  </g>
</svg>